<svg width="116" height="15" viewBox="0 0 116 15" fill="none" xmlns="http://www.w3.org/2000/svg">
<path d="M0.692 1.4H6.2C7.544 1.4 8.738 1.664 9.782 2.192C10.826 2.708 11.636 3.446 12.212 4.406C12.788 5.354 13.076 6.452 13.076 7.7C13.076 8.948 12.788 10.052 12.212 11.012C11.636 11.96 10.826 12.698 9.782 13.226C8.738 13.742 7.544 14 6.2 14H0.692V1.4ZM6.092 12.02C7.016 12.02 7.826 11.846 8.522 11.498C9.23 11.138 9.77 10.634 10.142 9.986C10.526 9.326 10.718 8.564 10.718 7.7C10.718 6.836 10.526 6.08 10.142 5.432C9.77 4.772 9.23 4.268 8.522 3.92C7.826 3.56 7.016 3.38 6.092 3.38H3.032V12.02H6.092ZM24.3831 9.248C24.3831 9.404 24.3711 9.626 24.3471 9.914H16.8051C16.9371 10.622 17.2791 11.186 17.8311 11.606C18.3951 12.014 19.0911 12.218 19.9191 12.218C20.9751 12.218 21.8451 11.87 22.5291 11.174L23.7351 12.56C23.3031 13.076 22.7571 13.466 22.0971 13.73C21.4371 13.994 20.6931 14.126 19.8651 14.126C18.8091 14.126 17.8791 13.916 17.0751 13.496C16.2711 13.076 15.6471 12.494 15.2031 11.75C14.7711 10.994 14.5551 10.142 14.5551 9.194C14.5551 8.258 14.7651 7.418 15.1851 6.674C15.6171 5.918 16.2111 5.33 16.9671 4.91C17.7231 4.49 18.5751 4.28 19.5231 4.28C20.4591 4.28 21.2931 4.49 22.0251 4.91C22.7691 5.318 23.3451 5.9 23.7531 6.656C24.1731 7.4 24.3831 8.264 24.3831 9.248ZM19.5231 6.08C18.8031 6.08 18.1911 6.296 17.6871 6.728C17.1951 7.148 16.8951 7.712 16.7871 8.42H22.2411C22.1451 7.724 21.8511 7.16 21.3591 6.728C20.8671 6.296 20.2551 6.08 19.5231 6.08ZM29.5144 14.126C28.7344 14.126 27.9724 14.024 27.2284 13.82C26.4844 13.616 25.8904 13.358 25.4464 13.046L26.3104 11.336C26.7424 11.624 27.2584 11.858 27.8584 12.038C28.4704 12.206 29.0704 12.29 29.6584 12.29C31.0024 12.29 31.6744 11.936 31.6744 11.228C31.6744 10.892 31.5004 10.658 31.1524 10.526C30.8164 10.394 30.2704 10.268 29.5144 10.148C28.7224 10.028 28.0744 9.89 27.5704 9.734C27.0784 9.578 26.6464 9.308 26.2744 8.924C25.9144 8.528 25.7344 7.982 25.7344 7.286C25.7344 6.374 26.1124 5.648 26.8684 5.108C27.6364 4.556 28.6684 4.28 29.9644 4.28C30.6244 4.28 31.2844 4.358 31.9444 4.514C32.6044 4.658 33.1444 4.856 33.5644 5.108L32.7004 6.818C31.8844 6.338 30.9664 6.098 29.9464 6.098C29.2864 6.098 28.7824 6.2 28.4344 6.404C28.0984 6.596 27.9304 6.854 27.9304 7.178C27.9304 7.538 28.1104 7.796 28.4704 7.952C28.8424 8.096 29.4124 8.234 30.1804 8.366C30.9484 8.486 31.5784 8.624 32.0704 8.78C32.5624 8.936 32.9824 9.2 33.3304 9.572C33.6904 9.944 33.8704 10.472 33.8704 11.156C33.8704 12.056 33.4804 12.776 32.7004 13.316C31.9204 13.856 30.8584 14.126 29.5144 14.126ZM41.586 13.478C41.322 13.694 40.998 13.856 40.614 13.964C40.242 14.072 39.846 14.126 39.426 14.126C38.37 14.126 37.554 13.85 36.978 13.298C36.402 12.746 36.114 11.942 36.114 10.886V6.26H34.53V4.46H36.114V2.264H38.364V4.46H40.938V6.26H38.364V10.832C38.364 11.3 38.478 11.66 38.706 11.912C38.934 12.152 39.264 12.272 39.696 12.272C40.2 12.272 40.62 12.14 40.956 11.876L41.586 13.478ZM43.4369 4.388H45.6869V14H43.4369V4.388ZM44.5709 2.804C44.1629 2.804 43.8209 2.678 43.5449 2.426C43.2689 2.162 43.1309 1.838 43.1309 1.454C43.1309 1.07 43.2689 0.751999 43.5449 0.499999C43.8209 0.235999 44.1629 0.104 44.5709 0.104C44.9789 0.104 45.3209 0.23 45.5969 0.481999C45.8729 0.722 46.0109 1.028 46.0109 1.4C46.0109 1.796 45.8729 2.132 45.5969 2.408C45.3329 2.672 44.9909 2.804 44.5709 2.804ZM54.0941 4.28C55.3061 4.28 56.2781 4.634 57.0101 5.342C57.7421 6.05 58.1081 7.1 58.1081 8.492V14H55.8581V8.78C55.8581 7.94 55.6601 7.31 55.2641 6.89C54.8681 6.458 54.3041 6.242 53.5721 6.242C52.7441 6.242 52.0901 6.494 51.6101 6.998C51.1301 7.49 50.8901 8.204 50.8901 9.14V14H48.6401V4.388H50.7821V5.63C51.1541 5.186 51.6221 4.85 52.1861 4.622C52.7501 4.394 53.3861 4.28 54.0941 4.28ZM64.6343 4.28C66.0503 4.28 67.1303 4.622 67.8743 5.306C68.6303 5.978 69.0083 6.998 69.0083 8.366V14H66.8843V12.83C66.6083 13.25 66.2123 13.574 65.6963 13.802C65.1923 14.018 64.5803 14.126 63.8603 14.126C63.1403 14.126 62.5103 14.006 61.9703 13.766C61.4303 13.514 61.0103 13.172 60.7103 12.74C60.4223 12.296 60.2783 11.798 60.2783 11.246C60.2783 10.382 60.5963 9.692 61.2323 9.176C61.8803 8.648 62.8943 8.384 64.2743 8.384H66.7583V8.24C66.7583 7.568 66.5543 7.052 66.1463 6.692C65.7503 6.332 65.1563 6.152 64.3643 6.152C63.8243 6.152 63.2903 6.236 62.7623 6.404C62.2463 6.572 61.8083 6.806 61.4483 7.106L60.5663 5.468C61.0703 5.084 61.6763 4.79 62.3843 4.586C63.0923 4.382 63.8423 4.28 64.6343 4.28ZM64.3283 12.488C64.8923 12.488 65.3903 12.362 65.8223 12.11C66.2663 11.846 66.5783 11.474 66.7583 10.994V9.878H64.4363C63.1403 9.878 62.4923 10.304 62.4923 11.156C62.4923 11.564 62.6543 11.888 62.9783 12.128C63.3023 12.368 63.7523 12.488 64.3283 12.488ZM77.6739 13.478C77.4099 13.694 77.0859 13.856 76.7019 13.964C76.3299 14.072 75.9339 14.126 75.5139 14.126C74.4579 14.126 73.6419 13.85 73.0659 13.298C72.4899 12.746 72.2019 11.942 72.2019 10.886V6.26H70.6179V4.46H72.2019V2.264H74.4519V4.46H77.0259V6.26H74.4519V10.832C74.4519 11.3 74.5659 11.66 74.7939 11.912C75.0219 12.152 75.3519 12.272 75.7839 12.272C76.2879 12.272 76.7079 12.14 77.0439 11.876L77.6739 13.478ZM79.5248 4.388H81.7748V14H79.5248V4.388ZM80.6588 2.804C80.2508 2.804 79.9088 2.678 79.6328 2.426C79.3568 2.162 79.2188 1.838 79.2188 1.454C79.2188 1.07 79.3568 0.751999 79.6328 0.499999C79.9088 0.235999 80.2508 0.104 80.6588 0.104C81.0668 0.104 81.4088 0.23 81.6848 0.481999C81.9608 0.722 82.0988 1.028 82.0988 1.4C82.0988 1.796 81.9608 2.132 81.6848 2.408C81.4208 2.672 81.0788 2.804 80.6588 2.804ZM89.048 14.126C88.076 14.126 87.2 13.916 86.42 13.496C85.64 13.076 85.028 12.494 84.584 11.75C84.152 10.994 83.936 10.142 83.936 9.194C83.936 8.246 84.152 7.4 84.584 6.656C85.028 5.912 85.64 5.33 86.42 4.91C87.2 4.49 88.076 4.28 89.048 4.28C90.032 4.28 90.914 4.49 91.694 4.91C92.474 5.33 93.08 5.912 93.512 6.656C93.956 7.4 94.178 8.246 94.178 9.194C94.178 10.142 93.956 10.994 93.512 11.75C93.08 12.494 92.474 13.076 91.694 13.496C90.914 13.916 90.032 14.126 89.048 14.126ZM89.048 12.2C89.876 12.2 90.56 11.924 91.1 11.372C91.64 10.82 91.91 10.094 91.91 9.194C91.91 8.294 91.64 7.568 91.1 7.016C90.56 6.464 89.876 6.188 89.048 6.188C88.22 6.188 87.536 6.464 86.996 7.016C86.468 7.568 86.204 8.294 86.204 9.194C86.204 10.094 86.468 10.82 86.996 11.372C87.536 11.924 88.22 12.2 89.048 12.2ZM101.784 4.28C102.996 4.28 103.968 4.634 104.7 5.342C105.432 6.05 105.798 7.1 105.798 8.492V14H103.548V8.78C103.548 7.94 103.35 7.31 102.954 6.89C102.558 6.458 101.994 6.242 101.262 6.242C100.434 6.242 99.7795 6.494 99.2995 6.998C98.8195 7.49 98.5795 8.204 98.5795 9.14V14H96.3295V4.388H98.4715V5.63C98.8435 5.186 99.3115 4.85 99.8755 4.622C100.44 4.394 101.076 4.28 101.784 4.28ZM111.622 14.126C110.842 14.126 110.08 14.024 109.336 13.82C108.592 13.616 107.998 13.358 107.554 13.046L108.418 11.336C108.85 11.624 109.366 11.858 109.966 12.038C110.578 12.206 111.178 12.29 111.766 12.29C113.11 12.29 113.782 11.936 113.782 11.228C113.782 10.892 113.608 10.658 113.26 10.526C112.924 10.394 112.378 10.268 111.622 10.148C110.83 10.028 110.182 9.89 109.678 9.734C109.186 9.578 108.754 9.308 108.382 8.924C108.022 8.528 107.842 7.982 107.842 7.286C107.842 6.374 108.22 5.648 108.976 5.108C109.744 4.556 110.776 4.28 112.072 4.28C112.732 4.28 113.392 4.358 114.052 4.514C114.712 4.658 115.252 4.856 115.672 5.108L114.808 6.818C113.992 6.338 113.074 6.098 112.054 6.098C111.394 6.098 110.89 6.2 110.542 6.404C110.206 6.596 110.038 6.854 110.038 7.178C110.038 7.538 110.218 7.796 110.578 7.952C110.95 8.096 111.52 8.234 112.288 8.366C113.056 8.486 113.686 8.624 114.178 8.78C114.67 8.936 115.09 9.2 115.438 9.572C115.798 9.944 115.978 10.472 115.978 11.156C115.978 12.056 115.588 12.776 114.808 13.316C114.028 13.856 112.966 14.126 111.622 14.126Z" fill="#6D6D6D"/>
</svg>
