<svg width="137" height="18" viewBox="0 0 137 18" fill="none" xmlns="http://www.w3.org/2000/svg">
<path opacity="0.9" d="M14.6836 4.11328H9.5625V18H5.44922V4.11328H0.421875V0.9375H14.6836V4.11328ZM28.7695 11.9766H26.543V18H22.4297V0.9375H29.1445C31.168 0.9375 32.75 1.38672 33.8906 2.28516C35.0312 3.18359 35.6016 4.45312 35.6016 6.09375C35.6016 7.28125 35.3594 8.26562 34.875 9.04688C34.3984 9.82812 33.6484 10.4609 32.625 10.9453L36.1875 17.8242V18H31.7812L28.7695 11.9766ZM26.543 8.80078H29.1445C29.9258 8.80078 30.5117 8.59766 30.9023 8.19141C31.3008 7.77734 31.5 7.20312 31.5 6.46875C31.5 5.73438 31.3008 5.16016 30.9023 4.74609C30.5039 4.32422 29.918 4.11328 29.1445 4.11328H26.543V8.80078ZM53.7773 14.8125H48.1406L47.1562 18H42.7617L49.0195 0.9375H52.8867L59.1914 18H54.7734L53.7773 14.8125ZM49.125 11.6367H52.793L50.9531 5.71875L49.125 11.6367ZM72.1523 13.3594L75.5508 0.9375H80.1445L74.4023 18H69.9023L64.207 0.9375H68.7656L72.1523 13.3594ZM97.9805 10.7695H91.5117V14.8359H99.1523V18H87.3984V0.9375H99.1758V4.11328H91.5117V7.71094H97.9805V10.7695ZM110.941 14.8359H118.102V18H106.828V0.9375H110.941V14.8359ZM130.793 8.8125L132.633 5.32031H136.734L133.395 11.4961L136.898 18H132.773L130.781 14.25L128.824 18H124.676L128.191 11.4961L124.863 5.32031H129.012L130.793 8.8125Z" fill="black"/>
</svg>
